<svg
        width="28"
        xmlns="http://www.w3.org/2000/svg"
        viewBox="0 0 512 512"
>
    <defs>
        <radialGradient id="gradient" cx="50%" cy="50%" r="50%" fx="50%" fy="50%">
            <stop offset="0%" stop-color="rgba(131,58,180,1)" />
            <stop offset="51%" stop-color="rgba(253,29,29,1)" />
            <stop offset="100%" stop-color="rgba(252,176,69,1)" />
        </radialGradient>
    </defs>
    <path
            d="M464 256A208 208 0 1 0 48 256a208 208 0 1 0 416 0zM0 256a256 256 0 1 1 512 0A256 256 0 1 1 0 256zM188.3 147.1c7.6-4.2 16.8-4.1 24.3 .5l144 88c7.1
      4.4 11.5 12.1 11.5 20.5s-4.4 16.1-11.5 20.5l-144 88c-7.4 4.5-16.7 4.7-24.3 .5s-12.3-12.2-12.3-20.9l0-176c0-8.7 4.7-16.7 12.3-20.9z"
            fill="url(#gradient)"
    />
</svg>